<?xml version="1.0" encoding="utf-8"?>
<svg version="1.1" id="Layer_1" xmlns="http://www.w3.org/2000/svg" xmlns:xlink="http://www.w3.org/1999/xlink" x="0px" y="0px"
	 viewBox="0 0 800 600" enable-background="new 0 0 800 600" xml:space="preserve">
<path fill="#F9F9F9" d="M704.2,204.2c-42.8,0-80,33.8-91.3,67.6H11.3c-6.8,0-11.3,4.5-11.3,11.3s4.5,11.3,11.3,11.3h597.2
	c0,0,0,3.4,0,5.6c0,5.6,1.1,16.9,1.1,16.9H180.3c-6.8,0-11.3,4.5-11.3,11.3s4.5,11.3,11.3,11.3h437.2c14.6,33.8,48.5,56.3,86.8,56.3
	c53,0,95.8-42.8,95.8-95.8S757.2,204.2,704.2,204.2z"/>
</svg>
