<?xml version="1.0" encoding="utf-8"?>
<svg version="1.1" id="Layer_1" xmlns="http://www.w3.org/2000/svg" xmlns:xlink="http://www.w3.org/1999/xlink" x="0px" y="0px"
	 viewBox="0 0 800 600" enable-background="new 0 0 800 600" xml:space="preserve">
<path fill="#F9F9F9" d="M0,300c0,53,42.8,95.8,95.8,95.8c38.3,0,72.1-22.5,86.8-56.3h437.2c6.8,0,11.3-4.5,11.3-11.3
	s-4.5-11.3-11.3-11.3H190.4c0,0,1.1-11.3,1.1-16.9c0-2.3,0-5.6,0-5.6h597.2c6.8,0,11.3-4.5,11.3-11.3s-4.5-11.3-11.3-11.3H187
	c-11.3-33.8-48.5-67.6-91.3-67.6C42.8,204.2,0,247,0,300z"/>
</svg>
